<svg xmlns="http://www.w3.org/2000/svg" viewBox="0 0 64 64">
  <defs>
    <linearGradient id="g" x1="0" y1="0" x2="1" y2="1">
      <stop offset="0%" stop-color="#0D9E9E"/>
      <stop offset="100%" stop-color="#065858"/>
    </linearGradient>
  </defs>
  <!-- Circle background -->
  <circle cx="32" cy="32" r="32" fill="url(#g)"/>
  <!-- Post-it grid 3x3 -->
  <rect x="14" y="16" width="9" height="9" rx="2" fill="white" opacity="0.9"/>
  <rect x="26" y="16" width="9" height="9" rx="2" fill="white" opacity="0.55"/>
  <rect x="38" y="16" width="9" height="9" rx="2" fill="white" opacity="0.3"/>
  <rect x="14" y="28" width="9" height="9" rx="2" fill="white" opacity="0.55"/>
  <rect x="26" y="28" width="9" height="9" rx="2" fill="#FCD34D" opacity="0.95"/>
  <rect x="38" y="28" width="9" height="9" rx="2" fill="white" opacity="0.65"/>
  <rect x="14" y="40" width="9" height="7" rx="2" fill="white" opacity="0.3"/>
  <rect x="26" y="40" width="9" height="7" rx="2" fill="white" opacity="0.4"/>
  <rect x="38" y="40" width="9" height="7" rx="2" fill="#34D399" opacity="0.9"/>
  <!-- Cycle arrow -->
  <path d="M32 7 A25 25 0 1 1 7 32" stroke="white" stroke-width="3.5" fill="none" stroke-linecap="round" opacity="0.92"/>
  <polygon points="4,24 7,34 13,26" fill="white" opacity="0.92"/>
</svg>
